<svg xmlns="http://www.w3.org/2000/svg" width="43.052" height="43.052" viewBox="0 0 43.052 43.052">
  <g id="arrow-circle-right-fill" transform="translate(0)">
    <path id="Path_420" data-name="Path 420" d="M16,37.526A21.526,21.526,0,1,0,37.526,16,21.526,21.526,0,0,0,16,37.526Zm25.53-7.943,6.156,6.458a1.055,1.055,0,0,1,.215.323,1.162,1.162,0,0,1,.215.344,2.023,2.023,0,0,1,0,1.636,2.153,2.153,0,0,1-.452.71l-6.458,6.458a2.161,2.161,0,0,1-3.057-3.057l2.8-2.777H28.916a2.153,2.153,0,0,1,0-4.305H41.1l-2.691-2.82a2.154,2.154,0,0,1,3.121-2.971Z" transform="translate(-16 -16)" fill="#fff"/>
  </g>
</svg>
