<svg id="instagram" xmlns="http://www.w3.org/2000/svg" width="20.265" height="20.265" viewBox="0 0 20.265 20.265">
  <g id="Group_444" data-name="Group 444">
    <path id="Path_271" data-name="Path 271" d="M10.132,0c-2.75,0-3.1.013-4.176.061A7.466,7.466,0,0,0,3.5.532,4.961,4.961,0,0,0,1.7,1.7,4.974,4.974,0,0,0,.532,3.5,7.422,7.422,0,0,0,.061,5.953C.013,7.036,0,7.38,0,10.134s.013,3.1.061,4.176a7.464,7.464,0,0,0,.471,2.46,5.187,5.187,0,0,0,2.962,2.964,7.439,7.439,0,0,0,2.46.471c1.082.048,1.426.061,4.178.061s3.1-.013,4.177-.061a7.48,7.48,0,0,0,2.461-.471,5.187,5.187,0,0,0,2.962-2.964,7.5,7.5,0,0,0,.471-2.46c.048-1.08.061-1.425.061-4.177s-.013-3.1-.061-4.178A7.489,7.489,0,0,0,19.733,3.5,4.972,4.972,0,0,0,18.564,1.7,4.953,4.953,0,0,0,16.769.532,7.454,7.454,0,0,0,14.308.061C13.226.013,12.883,0,10.13,0h0ZM9.224,1.826h.909c2.705,0,3.026.009,4.093.058a5.615,5.615,0,0,1,1.882.348,3.144,3.144,0,0,1,1.165.759,3.131,3.131,0,0,1,.757,1.165,5.565,5.565,0,0,1,.348,1.881c.049,1.068.06,1.388.06,4.092s-.01,3.026-.06,4.093a5.605,5.605,0,0,1-.348,1.881,3.358,3.358,0,0,1-1.924,1.921,5.574,5.574,0,0,1-1.881.35c-1.068.048-1.388.06-4.093.06s-3.027-.011-4.095-.06a5.6,5.6,0,0,1-1.881-.35,3.138,3.138,0,0,1-1.165-.757,3.141,3.141,0,0,1-.76-1.165,5.6,5.6,0,0,1-.348-1.881c-.048-1.068-.058-1.388-.058-4.095s.01-3.024.058-4.092a5.606,5.606,0,0,1,.35-1.882,3.144,3.144,0,0,1,.759-1.165A3.131,3.131,0,0,1,4.158,2.23a5.6,5.6,0,0,1,1.881-.35c.935-.043,1.3-.056,3.185-.057v0Zm6.318,1.682a1.216,1.216,0,1,0,1.216,1.216,1.216,1.216,0,0,0-1.216-1.216ZM10.134,4.929a5.2,5.2,0,1,0,5.2,5.2,5.2,5.2,0,0,0-5.2-5.2Zm0,1.825a3.378,3.378,0,1,1-3.378,3.378A3.378,3.378,0,0,1,10.134,6.754Z" fill="#166b99"/>
  </g>
</svg>
