<svg xmlns="http://www.w3.org/2000/svg" width="21.2" height="20.265" viewBox="0 0 21.2 20.265">
  <g id="linkedin" transform="translate(0)">
    <path id="Path_268" data-name="Path 268" d="M4.812,20.264V6.592H.268V20.264ZM2.541,4.724A2.37,2.37,0,1,0,2.571,0a2.369,2.369,0,1,0-.06,4.724h.03Zm4.787,15.54h4.544V12.629a3.115,3.115,0,0,1,.15-1.109,2.488,2.488,0,0,1,2.332-1.662c1.644,0,2.3,1.254,2.3,3.092v7.314H21.2v-7.84c0-4.2-2.242-6.154-5.232-6.154a4.527,4.527,0,0,0-4.126,2.3h.03V6.592H7.328c.06,1.283,0,13.673,0,13.673Z" fill="#166b99"/>
  </g>
</svg>
