<svg xmlns="http://www.w3.org/2000/svg" width="19.708" height="18.465" viewBox="0 0 19.708 18.465">
  <path id="twitter" d="M21.782,18.424l-.888-1.188-4.081-5.458q-1.5-2.007-3-4.014c-.034-.046-.027-.069.007-.107q1-1.08,2-2.163l2.651-2.862L20.634.293l.26-.284A.1.1,0,0,0,20.873,0q-.827,0-1.654,0a.107.107,0,0,0-.085.044C18.9.3,18.666.55,18.432.8L16.251,3.158q-1.6,1.731-3.2,3.463c-.051.055-.067.039-.1-.009q-.591-.794-1.185-1.585Q9.905,2.545,8.049.062A.118.118,0,0,0,7.945,0L2.2,0c-.018,0-.039-.01-.055.012.006.01.012.019.019.029L4.078,2.606,7.767,7.54q.958,1.282,1.92,2.563a.1.1,0,0,1-.008.159c-.414.441-.823.885-1.234,1.329L5.9,14.342,2.636,17.867l-.546.59a.255.255,0,0,0,.033.006H3.769a.109.109,0,0,0,.085-.045l1.068-1.153,2.849-3.076q1.353-1.461,2.7-2.923c.035-.039.052-.041.084,0,.13.179.263.354.4.531q2.473,3.307,4.947,6.615a.106.106,0,0,0,.1.047l5.74,0c.019,0,.043.012.06-.014l-.016-.023Zm-5.154-1.233a.094.094,0,0,1-.083-.045q-.748-1-1.5-2l-2.244-3L8.252,6.058,4.709,1.322C4.7,1.313,4.7,1.3,4.69,1.293c.019-.024.043-.014.062-.014q1.278,0,2.557,0a.105.105,0,0,1,.1.048Q9.725,4.433,12.05,7.538l4.542,6.071,2.635,3.525a.086.086,0,0,1,.028.056H16.628Z" transform="translate(-2.09)" fill="#166b99"/>
</svg>
