<svg xmlns="http://www.w3.org/2000/svg" width="24.843" height="17.472" viewBox="0 0 24.843 17.472">
  <g id="youtube" transform="translate(-16 -40)">
    <path id="Path_270" data-name="Path 270" d="M25.856,51.959V44.979l6.711,3.5ZM40.594,43.77a5.372,5.372,0,0,0-.988-2.467,3.557,3.557,0,0,0-2.489-1.052C33.642,40,28.426,40,28.426,40h-.01s-5.215,0-8.691.251A3.553,3.553,0,0,0,17.236,41.3a5.372,5.372,0,0,0-.988,2.467A37.56,37.56,0,0,0,16,47.791v1.884a37.59,37.59,0,0,0,.248,4.021,5.369,5.369,0,0,0,.988,2.466,4.211,4.211,0,0,0,2.739,1.062c1.987.19,8.447.248,8.447.248s5.221-.007,8.7-.258a3.551,3.551,0,0,0,2.489-1.052,5.369,5.369,0,0,0,.988-2.466,37.59,37.59,0,0,0,.248-4.021V47.791a37.559,37.559,0,0,0-.248-4.021Z" fill="#166b99" fill-rule="evenodd"/>
  </g>
</svg>
