<svg id="arrow-circle-left-fill" xmlns="http://www.w3.org/2000/svg" width="43.052" height="43.052" viewBox="0 0 43.052 43.052">
  <path id="Path_421" data-name="Path 421" d="M59.052,37.526A21.526,21.526,0,1,0,37.526,59.052,21.526,21.526,0,0,0,59.052,37.526Zm-25.53,7.943-6.156-6.458a1.055,1.055,0,0,1-.215-.323,1.162,1.162,0,0,1-.215-.344,2.023,2.023,0,0,1,0-1.636,2.153,2.153,0,0,1,.452-.71l6.458-6.458A2.161,2.161,0,0,1,36.9,32.6l-2.8,2.777H46.136a2.153,2.153,0,1,1,0,4.305H33.953l2.691,2.82a2.154,2.154,0,0,1-3.121,2.971Z" transform="translate(-16 -16)" fill="#e1e1e1"/>
</svg>
