<svg xmlns="http://www.w3.org/2000/svg" width="42.705" height="37.682" viewBox="0 0 42.705 37.682">
  <path id="audio-svgrepo-com" d="M25.121,113v37.682H20.833L10.784,140.633H3.768A3.773,3.773,0,0,1,0,136.865V126.817a3.773,3.773,0,0,1,3.768-3.768h7.016L20.833,113h4.288Zm-2.512,2.512h-.736l-9.312,9.312v14.033l9.312,9.312h.736V115.512Zm14.58,3.005a18.846,18.846,0,0,1,0,26.646l-1.776-1.776a16.336,16.336,0,0,0,0-23.094ZM31.87,123.85a11.329,11.329,0,0,1,0,15.982l-1.791-1.764a8.812,8.812,0,0,0,0-12.455Zm-21.822,1.711H3.768a1.258,1.258,0,0,0-1.256,1.256v10.048a1.258,1.258,0,0,0,1.256,1.256h6.28V125.561Z" transform="translate(0 -113)" fill-rule="evenodd"/>
</svg>
