<svg xmlns="http://www.w3.org/2000/svg" width="38.333" height="29.681" viewBox="0 0 38.333 29.681">
  <g id="mail" transform="translate(0 0)">
    <g id="Group_579" data-name="Group 579" transform="translate(0 0)">
      <path id="Path_388" data-name="Path 388" d="M59.141,38.763H23.352a1.274,1.274,0,0,0-1.272,1.273V42.6a.431.431,0,0,0,.232.308L41.124,53.65a.321.321,0,0,0,.32,0L59.686,42.915c.1-.057.374-.209.476-.278.123-.084.251-.16.251-.311V40.035A1.274,1.274,0,0,0,59.141,38.763Z" transform="translate(-22.08 -38.763)" fill="#ab3861"/>
      <path id="Path_389" data-name="Path 389" d="M138.449,68.32a.321.321,0,0,0-.321,0L127.8,74.4a.317.317,0,0,0-.072.49l10.325,11.13a.315.315,0,0,0,.232.1.319.319,0,0,0,.318-.318V68.6a.318.318,0,0,0-.159-.276Z" transform="translate(-100.274 -60.625)" fill="#ab3861"/>
      <path id="Path_390" data-name="Path 390" d="M48.007,99.447a.317.317,0,0,0-.394-.059l-4.138,2.435a1.614,1.614,0,0,1-1.6.01l-3.642-2.08a.319.319,0,0,0-.374.043L24.034,112.624a.319.319,0,0,0,.057.508,1.231,1.231,0,0,0,.634.187H60.147a.318.318,0,0,0,.232-.535Z" transform="translate(-23.452 -83.637)" fill="#ab3861"/>
      <path id="Path_391" data-name="Path 391" d="M33.448,75.98a.318.318,0,0,0-.057-.509L22.554,69.282a.318.318,0,0,0-.474.277V85.8a.317.317,0,0,0,.534.233Z" transform="translate(-22.08 -61.338)" fill="#ab3861"/>
    </g>
  </g>
</svg>
