<svg xmlns="http://www.w3.org/2000/svg" width="35.546" height="41.015" viewBox="0 0 35.546 41.015">
  <path id="pdf-svgrepo-com" d="M5.1,17.773V16.406H3.734v1.367Zm10.937,0V16.406H14.672v1.367Zm0,10.937H14.672v1.367h1.367ZM35.179,9.57h1.367V9l-.4-.4Zm-8.2-8.2L27.943.4l-.4-.4h-.566ZM5.1,19.14H7.836V16.406H5.1ZM6.469,30.078V23.242H3.734v6.836Zm0-6.836V17.773H3.734v5.469Zm1.367-1.367H5.1v2.734H7.836ZM9.2,20.508a1.367,1.367,0,0,1-1.367,1.367v2.734a4.1,4.1,0,0,0,4.1-4.1ZM7.836,19.14A1.367,1.367,0,0,1,9.2,20.508h2.734a4.1,4.1,0,0,0-4.1-4.1Zm6.836-1.367V28.711h2.734V17.773Zm1.367,12.3h2.734V27.344H16.039Zm6.836-4.1V20.508H20.14v5.469Zm-4.1-9.57H16.039V19.14h2.734Zm4.1,4.1a4.1,4.1,0,0,0-4.1-4.1V19.14a1.367,1.367,0,0,1,1.367,1.367Zm-4.1,9.57a4.1,4.1,0,0,0,4.1-4.1H20.14a1.367,1.367,0,0,1-1.367,1.367Zm6.836-13.672V30.078h2.734V16.406Zm1.367,2.734h6.836V16.406H26.976Zm0,5.469h4.1V21.875h-4.1ZM3.734,13.672V4.1H1v9.57Zm30.078-4.1v4.1h2.734V9.57ZM5.1,2.734H26.976V0H5.1Zm20.908-.4,8.2,8.2L36.146,8.6,27.943.4ZM3.734,4.1A1.367,1.367,0,0,1,5.1,2.734V0A4.1,4.1,0,0,0,1,4.1ZM1,32.812v4.1H3.734v-4.1Zm4.1,8.2H32.445V38.281H5.1Zm31.445-4.1v-4.1H33.812v4.1Zm-4.1,4.1a4.1,4.1,0,0,0,4.1-4.1H33.812a1.367,1.367,0,0,1-1.367,1.367ZM1,36.914a4.1,4.1,0,0,0,4.1,4.1V38.281a1.367,1.367,0,0,1-1.367-1.367Z" transform="translate(-1)"/>
</svg>
